<svg xmlns="http://www.w3.org/2000/svg" xmlns:xlink="http://www.w3.org/1999/xlink" width="2000" zoomAndPan="magnify" viewBox="270 480 940 540" height="2000" preserveAspectRatio="xMidYMid meet" version="1.0"><defs><g/><clipPath id="2f6fe499e1"><rect x="0" width="478" y="0" height="291"/></clipPath><clipPath id="bcd88fd5bc"><rect x="0" width="404" y="0" height="291"/></clipPath><clipPath id="4f68611e93"><rect x="0" width="494" y="0" height="291"/></clipPath></defs><g transform="matrix(1, 0, 0, 1, 285, 497)"><g clip-path="url(#2f6fe499e1)"><g fill="#d4c1a0" fill-opacity="1"><g transform="translate(0.288231, 235.250751)"><g><path d="M 9.078125 -153.03125 C 12.097656 -152.882812 16.054688 -152.738281 20.953125 -152.59375 C 25.859375 -152.445312 30.691406 -152.375 35.453125 -152.375 C 42.222656 -152.375 48.703125 -152.445312 54.890625 -152.59375 C 61.085938 -152.738281 65.484375 -152.8125 68.078125 -152.8125 C 85.515625 -152.8125 98.554688 -148.847656 107.203125 -140.921875 C 115.847656 -132.992188 120.171875 -122.765625 120.171875 -110.234375 C 120.171875 -105.046875 119.304688 -99.601562 117.578125 -93.90625 C 115.847656 -88.21875 112.859375 -82.957031 108.609375 -78.125 C 104.359375 -73.300781 98.554688 -69.375 91.203125 -66.34375 C 83.859375 -63.320312 74.566406 -61.8125 63.328125 -61.8125 L 42.578125 -61.8125 L 42.578125 -66.140625 L 61.171875 -66.140625 C 71.398438 -66.140625 79.210938 -68.082031 84.609375 -71.96875 C 90.015625 -75.863281 93.691406 -80.976562 95.640625 -87.3125 C 97.585938 -93.65625 98.5625 -100.503906 98.5625 -107.859375 C 98.5625 -121.546875 95.859375 -131.773438 90.453125 -138.546875 C 85.046875 -145.316406 75.789062 -148.703125 62.6875 -148.703125 C 56.050781 -148.703125 51.722656 -147.476562 49.703125 -145.03125 C 47.691406 -142.582031 46.6875 -137.609375 46.6875 -130.109375 L 46.6875 -22.90625 C 46.6875 -17.71875 47.222656 -13.828125 48.296875 -11.234375 C 49.378906 -8.640625 51.503906 -6.910156 54.671875 -6.046875 C 57.847656 -5.179688 62.460938 -4.609375 68.515625 -4.328125 L 68.515625 0 C 64.765625 -0.289062 60.007812 -0.46875 54.25 -0.53125 C 48.488281 -0.601562 42.65625 -0.640625 36.75 -0.640625 C 31.125 -0.640625 25.859375 -0.601562 20.953125 -0.53125 C 16.054688 -0.46875 12.097656 -0.289062 9.078125 0 L 9.078125 -4.328125 C 13.972656 -4.609375 17.679688 -5.179688 20.203125 -6.046875 C 22.722656 -6.910156 24.414062 -8.640625 25.28125 -11.234375 C 26.144531 -13.828125 26.578125 -17.71875 26.578125 -22.90625 L 26.578125 -130.109375 C 26.578125 -135.441406 26.144531 -139.367188 25.28125 -141.890625 C 24.414062 -144.410156 22.722656 -146.140625 20.203125 -147.078125 C 17.679688 -148.015625 13.972656 -148.554688 9.078125 -148.703125 Z M 9.078125 -153.03125 "/></g></g></g><g fill="#d4c1a0" fill-opacity="1"><g transform="translate(124.773417, 235.250751)"><g><path d="M 40.640625 -169.453125 L 40.640625 -20.09375 C 40.640625 -14.039062 41.898438 -9.929688 44.421875 -7.765625 C 46.941406 -5.609375 51.15625 -4.53125 57.0625 -4.53125 L 57.0625 0 C 54.613281 -0.144531 50.898438 -0.320312 45.921875 -0.53125 C 40.953125 -0.75 35.945312 -0.859375 30.90625 -0.859375 C 26.007812 -0.859375 21.035156 -0.75 15.984375 -0.53125 C 10.941406 -0.320312 7.195312 -0.144531 4.75 0 L 4.75 -4.53125 C 10.65625 -4.53125 14.867188 -5.609375 17.390625 -7.765625 C 19.921875 -9.929688 21.1875 -14.039062 21.1875 -20.09375 L 21.1875 -143.515625 C 21.1875 -150.003906 20.03125 -154.796875 17.71875 -157.890625 C 15.414062 -160.984375 11.09375 -162.53125 4.75 -162.53125 L 4.75 -167.078125 C 9.363281 -166.640625 13.832031 -166.421875 18.15625 -166.421875 C 22.332031 -166.421875 26.328125 -166.671875 30.140625 -167.171875 C 33.960938 -167.679688 37.460938 -168.441406 40.640625 -169.453125 Z M 40.640625 -169.453125 "/></g></g></g><g fill="#d4c1a0" fill-opacity="1"><g transform="translate(186.58385, 235.250751)"><g><path d="M 36.953125 1.515625 C 31.046875 1.515625 25.929688 0.398438 21.609375 -1.828125 C 17.285156 -4.066406 14.003906 -7.203125 11.765625 -11.234375 C 9.535156 -15.273438 8.421875 -19.957031 8.421875 -25.28125 C 8.421875 -31.625 9.898438 -36.8125 12.859375 -40.84375 C 15.816406 -44.882812 19.597656 -48.128906 24.203125 -50.578125 C 28.816406 -53.023438 33.679688 -55.078125 38.796875 -56.734375 C 43.910156 -58.390625 48.769531 -59.972656 53.375 -61.484375 C 57.988281 -63.003906 61.773438 -64.769531 64.734375 -66.78125 C 67.691406 -68.800781 69.171875 -71.46875 69.171875 -74.78125 L 69.171875 -88.1875 C 69.171875 -94.238281 68.269531 -98.847656 66.46875 -102.015625 C 64.664062 -105.179688 62.25 -107.304688 59.21875 -108.390625 C 56.195312 -109.472656 52.8125 -110.015625 49.0625 -110.015625 C 45.457031 -110.015625 41.601562 -109.507812 37.5 -108.5 C 33.394531 -107.488281 30.117188 -105.398438 27.671875 -102.234375 C 30.398438 -101.660156 32.773438 -100.21875 34.796875 -97.90625 C 36.816406 -95.601562 37.828125 -92.648438 37.828125 -89.046875 C 37.828125 -85.441406 36.671875 -82.59375 34.359375 -80.5 C 32.054688 -78.414062 29.101562 -77.375 25.5 -77.375 C 21.320312 -77.375 18.257812 -78.707031 16.3125 -81.375 C 14.375 -84.039062 13.40625 -87.03125 13.40625 -90.34375 C 13.40625 -94.09375 14.335938 -97.117188 16.203125 -99.421875 C 18.078125 -101.734375 20.457031 -103.894531 23.34375 -105.90625 C 26.65625 -108.207031 30.941406 -110.1875 36.203125 -111.84375 C 41.460938 -113.507812 47.40625 -114.34375 54.03125 -114.34375 C 59.9375 -114.34375 64.976562 -113.65625 69.15625 -112.28125 C 73.34375 -110.914062 76.804688 -108.9375 79.546875 -106.34375 C 83.285156 -102.882812 85.734375 -98.664062 86.890625 -93.6875 C 88.046875 -88.71875 88.625 -82.773438 88.625 -75.859375 L 88.625 -15.78125 C 88.625 -12.175781 89.160156 -9.582031 90.234375 -8 C 91.316406 -6.414062 93.007812 -5.625 95.3125 -5.625 C 96.90625 -5.625 98.421875 -5.984375 99.859375 -6.703125 C 101.296875 -7.421875 103.023438 -8.570312 105.046875 -10.15625 L 107.421875 -6.484375 C 104.398438 -4.179688 101.519531 -2.269531 98.78125 -0.75 C 96.039062 0.757812 92.363281 1.515625 87.75 1.515625 C 83.570312 1.515625 80.113281 0.796875 77.375 -0.640625 C 74.632812 -2.085938 72.582031 -4.210938 71.21875 -7.015625 C 69.851562 -9.828125 69.171875 -13.394531 69.171875 -17.71875 C 65.273438 -11.238281 60.625 -6.410156 55.21875 -3.234375 C 49.820312 -0.0664062 43.734375 1.515625 36.953125 1.515625 Z M 44.734375 -7.125 C 49.492188 -7.125 53.925781 -8.492188 58.03125 -11.234375 C 62.132812 -13.972656 65.847656 -18.082031 69.171875 -23.5625 L 69.171875 -65.921875 C 67.441406 -63.472656 64.914062 -61.421875 61.59375 -59.765625 C 58.28125 -58.109375 54.675781 -56.453125 50.78125 -54.796875 C 46.894531 -53.140625 43.1875 -51.191406 39.65625 -48.953125 C 36.125 -46.722656 33.207031 -43.804688 30.90625 -40.203125 C 28.601562 -36.597656 27.453125 -31.914062 27.453125 -26.15625 C 27.453125 -20.382812 29 -15.769531 32.09375 -12.3125 C 35.195312 -8.851562 39.410156 -7.125 44.734375 -7.125 Z M 44.734375 -7.125 "/></g></g></g><g fill="#d4c1a0" fill-opacity="1"><g transform="translate(294.211815, 235.250751)"><g><path d="M 78.890625 -114.34375 C 84.367188 -114.34375 88.941406 -113.617188 92.609375 -112.171875 C 96.285156 -110.734375 99.347656 -108.71875 101.796875 -106.125 C 104.535156 -103.238281 106.476562 -99.632812 107.625 -95.3125 C 108.78125 -90.988281 109.359375 -85.15625 109.359375 -77.8125 L 109.359375 -20.09375 C 109.359375 -14.039062 110.617188 -9.929688 113.140625 -7.765625 C 115.671875 -5.609375 119.890625 -4.53125 125.796875 -4.53125 L 125.796875 0 C 123.347656 -0.144531 119.597656 -0.320312 114.546875 -0.53125 C 109.503906 -0.75 104.609375 -0.859375 99.859375 -0.859375 C 95.097656 -0.859375 90.445312 -0.75 85.90625 -0.53125 C 81.375 -0.320312 77.957031 -0.144531 75.65625 0 L 75.65625 -4.53125 C 80.84375 -4.53125 84.515625 -5.609375 86.671875 -7.765625 C 88.835938 -9.929688 89.921875 -14.039062 89.921875 -20.09375 L 89.921875 -82.5625 C 89.921875 -87.03125 89.554688 -91.132812 88.828125 -94.875 C 88.109375 -98.625 86.488281 -101.648438 83.96875 -103.953125 C 81.445312 -106.265625 77.59375 -107.421875 72.40625 -107.421875 C 66.351562 -107.421875 61.054688 -105.691406 56.515625 -102.234375 C 51.984375 -98.773438 48.453125 -94.054688 45.921875 -88.078125 C 43.398438 -82.097656 42.140625 -75.429688 42.140625 -68.078125 L 42.140625 -20.09375 C 42.140625 -14.039062 43.21875 -9.929688 45.375 -7.765625 C 47.539062 -5.609375 51.21875 -4.53125 56.40625 -4.53125 L 56.40625 0 C 54.101562 -0.144531 50.679688 -0.320312 46.140625 -0.53125 C 41.609375 -0.75 36.960938 -0.859375 32.203125 -0.859375 C 27.453125 -0.859375 22.550781 -0.75 17.5 -0.53125 C 12.457031 -0.320312 8.710938 -0.144531 6.265625 0 L 6.265625 -4.53125 C 12.171875 -4.53125 16.382812 -5.609375 18.90625 -7.765625 C 21.425781 -9.929688 22.6875 -14.039062 22.6875 -20.09375 L 22.6875 -87.75 C 22.6875 -94.238281 21.535156 -99.03125 19.234375 -102.125 C 16.929688 -105.21875 12.609375 -106.765625 6.265625 -106.765625 L 6.265625 -111.3125 C 10.878906 -110.875 15.347656 -110.65625 19.671875 -110.65625 C 23.847656 -110.65625 27.84375 -110.90625 31.65625 -111.40625 C 35.476562 -111.914062 38.972656 -112.675781 42.140625 -113.6875 L 42.140625 -88.1875 C 45.890625 -97.988281 51.113281 -104.796875 57.8125 -108.609375 C 64.519531 -112.429688 71.546875 -114.34375 78.890625 -114.34375 Z M 78.890625 -114.34375 "/></g></g></g><g fill="#d4c1a0" fill-opacity="1"><g transform="translate(423.235723, 235.250751)"><g/></g></g></g></g><g transform="matrix(1, 0, 0, 1, 285, 712)"><g clip-path="url(#bcd88fd5bc)"><g fill="#d4c1a0" fill-opacity="1"><g transform="translate(0.288231, 235.243271)"><g><path d="M 64.1875 -14.90625 C 59.4375 -9.71875 54.140625 -5.429688 48.296875 -2.046875 C 42.460938 1.335938 36.234375 3.03125 29.609375 3.03125 C 22.984375 3.03125 17.722656 1.878906 13.828125 -0.421875 C 9.941406 -2.734375 7.132812 -5.796875 5.40625 -9.609375 C 3.675781 -13.429688 2.8125 -17.429688 2.8125 -21.609375 C 2.8125 -28.671875 4.828125 -35.945312 8.859375 -43.4375 C 12.890625 -50.9375 18.179688 -58.394531 24.734375 -65.8125 C 31.296875 -73.238281 38.46875 -80.335938 46.25 -87.109375 C 54.03125 -93.878906 61.597656 -99.929688 68.953125 -105.265625 L 72.40625 -105.90625 C 70.101562 -105.039062 67.65625 -103.851562 65.0625 -102.34375 C 62.46875 -100.832031 59.941406 -99.316406 57.484375 -97.796875 C 55.035156 -96.285156 52.660156 -94.988281 50.359375 -93.90625 C 48.054688 -92.832031 45.894531 -92.296875 43.875 -92.296875 C 41.132812 -92.296875 38.789062 -93.195312 36.84375 -95 C 34.90625 -96.800781 32.710938 -97.703125 30.265625 -97.703125 C 27.953125 -97.703125 26.003906 -96.726562 24.421875 -94.78125 C 22.835938 -92.832031 21.253906 -89.335938 19.671875 -84.296875 L 17.078125 -76.296875 L 12.96875 -76.296875 L 17.9375 -92.078125 C 20.820312 -100.578125 23.957031 -106.375 27.34375 -109.46875 C 30.726562 -112.570312 34.296875 -114.125 38.046875 -114.125 C 40.773438 -114.125 43.113281 -113.398438 45.0625 -111.953125 C 47.007812 -110.515625 48.953125 -109.109375 50.890625 -107.734375 C 52.835938 -106.367188 55.179688 -105.6875 57.921875 -105.6875 C 61.378906 -105.6875 64.476562 -106.226562 67.21875 -107.3125 C 69.957031 -108.394531 72.625 -110.085938 75.21875 -112.390625 L 78.25 -116.5 L 82.78125 -114.34375 C 75.289062 -108.144531 68.050781 -101.515625 61.0625 -94.453125 C 54.070312 -87.390625 47.800781 -80.003906 42.25 -72.296875 C 36.707031 -64.585938 32.273438 -56.585938 28.953125 -48.296875 C 25.640625 -40.015625 23.984375 -31.550781 23.984375 -22.90625 C 23.984375 -15.707031 25.0625 -10.664062 27.21875 -7.78125 C 29.382812 -4.894531 32.269531 -3.453125 35.875 -3.453125 C 40.195312 -3.453125 44.734375 -4.785156 49.484375 -7.453125 C 54.242188 -10.117188 58.859375 -13.972656 63.328125 -19.015625 Z M 88.1875 -3.234375 C 95.25 -3.234375 101.40625 -5.25 106.65625 -9.28125 C 111.914062 -13.320312 116.273438 -18.546875 119.734375 -24.953125 C 123.191406 -31.367188 125.820312 -38.285156 127.625 -45.703125 C 129.425781 -53.128906 130.472656 -60.265625 130.765625 -67.109375 C 131.054688 -73.953125 130.550781 -79.753906 129.25 -84.515625 C 126.507812 -85.085938 123.554688 -86.128906 120.390625 -87.640625 C 117.222656 -89.160156 114.484375 -91.25 112.171875 -93.90625 C 109.867188 -96.570312 108.71875 -99.851562 108.71875 -103.75 C 108.71875 -107.488281 109.722656 -110.148438 111.734375 -111.734375 C 113.753906 -113.328125 115.773438 -114.125 117.796875 -114.125 C 119.953125 -114.125 121.859375 -113.472656 123.515625 -112.171875 C 125.179688 -110.878906 126.660156 -109.078125 127.953125 -106.765625 C 129.253906 -104.460938 130.40625 -101.757812 131.40625 -98.65625 C 132.414062 -95.5625 133.210938 -92.21875 133.796875 -88.625 C 135.234375 -82.132812 135.804688 -74.851562 135.515625 -66.78125 C 135.234375 -58.71875 134.007812 -50.613281 131.84375 -42.46875 C 129.6875 -34.332031 126.445312 -26.804688 122.125 -19.890625 C 117.800781 -12.972656 112.359375 -7.421875 105.796875 -3.234375 C 99.242188 0.941406 91.425781 3.03125 82.34375 3.03125 C 77.738281 3.03125 73.488281 2.164062 69.59375 0.4375 C 65.707031 -1.289062 62.570312 -4.316406 60.1875 -8.640625 C 57.8125 -12.960938 56.625 -18.941406 56.625 -26.578125 C 56.625 -32.921875 57.664062 -39.117188 59.75 -45.171875 C 61.84375 -51.222656 64.546875 -56.695312 67.859375 -61.59375 C 71.179688 -66.5 74.640625 -70.390625 78.234375 -73.265625 C 81.835938 -76.148438 85.15625 -77.59375 88.1875 -77.59375 C 90.34375 -77.59375 91.960938 -76.800781 93.046875 -75.21875 C 94.128906 -73.632812 94.847656 -71.648438 95.203125 -69.265625 C 95.566406 -66.890625 95.75 -64.625 95.75 -62.46875 C 95.75 -54.6875 93.625 -46.757812 89.375 -38.6875 C 85.125 -30.613281 78.53125 -23.191406 69.59375 -16.421875 L 68.515625 -20.3125 C 75.285156 -25.644531 80.6875 -32.128906 84.71875 -39.765625 C 88.757812 -47.398438 90.78125 -55.039062 90.78125 -62.6875 C 90.78125 -65.5625 90.488281 -67.972656 89.90625 -69.921875 C 89.332031 -71.867188 88.253906 -72.84375 86.671875 -72.84375 C 84.367188 -72.84375 81.773438 -71.003906 78.890625 -67.328125 C 76.003906 -63.648438 73.515625 -58.960938 71.421875 -53.265625 C 69.335938 -47.578125 68.296875 -41.566406 68.296875 -35.234375 C 68.296875 -30.046875 68.90625 -25 70.125 -20.09375 C 71.351562 -15.195312 73.445312 -11.160156 76.40625 -7.984375 C 79.363281 -4.816406 83.289062 -3.234375 88.1875 -3.234375 Z M 88.1875 -3.234375 "/></g></g></g><g fill="#d4c1a0" fill-opacity="1"><g transform="translate(148.330713, 235.243271)"><g><path d="M 40.84375 -150.4375 C 41.570312 -154.175781 43.484375 -157.414062 46.578125 -160.15625 C 49.671875 -162.894531 53.019531 -164.265625 56.625 -164.265625 C 60.375 -164.265625 63.289062 -162.894531 65.375 -160.15625 C 67.46875 -157.414062 68.15625 -154.175781 67.4375 -150.4375 C 66.71875 -146.6875 64.804688 -143.441406 61.703125 -140.703125 C 58.609375 -137.960938 55.1875 -136.59375 51.4375 -136.59375 C 47.832031 -136.59375 44.984375 -137.960938 42.890625 -140.703125 C 40.804688 -143.441406 40.125 -146.6875 40.84375 -150.4375 Z M 34.15625 -92.71875 C 37.175781 -101.65625 36.164062 -106.125 31.125 -106.125 C 27.8125 -106.125 24.859375 -104.320312 22.265625 -100.71875 C 19.671875 -97.113281 16.929688 -91.566406 14.046875 -84.078125 L 11.015625 -76.078125 L 6.921875 -76.078125 L 12.53125 -91.859375 C 14.695312 -97.910156 17.289062 -102.519531 20.3125 -105.6875 C 23.34375 -108.863281 26.550781 -111.0625 29.9375 -112.28125 C 33.320312 -113.507812 36.457031 -114.125 39.34375 -114.125 C 43.945312 -114.125 47.328125 -113.1875 49.484375 -111.3125 C 51.648438 -109.4375 52.945312 -106.984375 53.375 -103.953125 C 53.8125 -100.929688 53.671875 -97.65625 52.953125 -94.125 C 52.234375 -90.59375 51.296875 -87.171875 50.140625 -83.859375 L 27.015625 -18.375 C 25.578125 -14.195312 25.109375 -10.914062 25.609375 -8.53125 C 26.117188 -6.15625 27.738281 -4.96875 30.46875 -4.96875 C 33.351562 -4.96875 36.09375 -6.550781 38.6875 -9.71875 C 41.28125 -12.894531 44.160156 -18.660156 47.328125 -27.015625 L 50.359375 -35.015625 L 54.46875 -35.015625 L 48.84375 -19.234375 C 46.832031 -13.617188 44.382812 -9.1875 41.5 -5.9375 C 38.613281 -2.695312 35.515625 -0.394531 32.203125 0.96875 C 28.890625 2.34375 25.578125 3.03125 22.265625 3.03125 C 16.066406 3.03125 11.882812 1.585938 9.71875 -1.296875 C 7.5625 -4.179688 6.769531 -7.925781 7.34375 -12.53125 C 7.925781 -17.144531 9.148438 -22.046875 11.015625 -27.234375 Z M 34.15625 -92.71875 "/></g></g></g><g fill="#d4c1a0" fill-opacity="1"><g transform="translate(213.599078, 235.243271)"><g><path d="M 81.046875 -111.09375 L 80.40625 -106.765625 L 13.1875 -106.765625 L 14.265625 -111.09375 Z M 26.15625 -18.375 C 24.851562 -13.613281 25.175781 -10.1875 27.125 -8.09375 C 29.070312 -6.007812 31.628906 -4.96875 34.796875 -4.96875 C 37.960938 -4.96875 41.164062 -6.335938 44.40625 -9.078125 C 47.65625 -11.816406 50.863281 -17.648438 54.03125 -26.578125 L 57.0625 -35.015625 L 61.171875 -35.015625 L 56.625 -21.390625 C 53.457031 -12.023438 49.382812 -5.613281 44.40625 -2.15625 C 39.4375 1.300781 33.640625 3.03125 27.015625 3.03125 C 21.109375 3.03125 16.601562 1.769531 13.5 -0.75 C 10.40625 -3.269531 8.566406 -6.835938 7.984375 -11.453125 C 7.410156 -16.066406 7.988281 -21.328125 9.71875 -27.234375 L 43.234375 -143.953125 C 46.691406 -144.097656 50.113281 -144.382812 53.5 -144.8125 C 56.882812 -145.25 59.945312 -145.96875 62.6875 -146.96875 Z M 26.15625 -18.375 "/></g></g></g><g fill="#d4c1a0" fill-opacity="1"><g transform="translate(286.215537, 235.243271)"><g><path d="M 16.859375 0 L -1.9375 0 L 40.84375 -144.171875 C 42.289062 -149.066406 42.113281 -152.664062 40.3125 -154.96875 C 38.507812 -157.28125 34.078125 -158.4375 27.015625 -158.4375 L 28.3125 -162.96875 C 36.238281 -163.113281 43.367188 -163.941406 49.703125 -165.453125 C 56.046875 -166.960938 61.882812 -169.085938 67.21875 -171.828125 Z M 22.90625 -31.984375 C 28.382812 -47.117188 33.609375 -59.941406 38.578125 -70.453125 C 43.546875 -80.972656 48.476562 -89.441406 53.375 -95.859375 C 58.28125 -102.273438 63.328125 -106.921875 68.515625 -109.796875 C 73.703125 -112.679688 79.109375 -114.125 84.734375 -114.125 C 91.503906 -114.125 96.148438 -112.5 98.671875 -109.25 C 101.191406 -106.007812 102.304688 -101.867188 102.015625 -96.828125 C 101.734375 -91.785156 100.726562 -86.671875 99 -81.484375 L 78.03125 -18.375 C 76.875 -14.625 76.367188 -11.453125 76.515625 -8.859375 C 76.660156 -6.265625 78.316406 -4.96875 81.484375 -4.96875 C 84.222656 -4.96875 86.925781 -6.476562 89.59375 -9.5 C 92.257812 -12.53125 95.101562 -18.367188 98.125 -27.015625 L 100.9375 -35.015625 L 105.046875 -35.015625 L 99.640625 -19.234375 C 97.617188 -13.179688 95.128906 -8.566406 92.171875 -5.390625 C 89.222656 -2.222656 86.128906 -0.03125 82.890625 1.1875 C 79.648438 2.414062 76.515625 3.03125 73.484375 3.03125 C 67.722656 3.03125 63.6875 1.734375 61.375 -0.859375 C 59.070312 -3.453125 58.097656 -7.054688 58.453125 -11.671875 C 58.816406 -16.285156 59.9375 -21.472656 61.8125 -27.234375 L 82.34375 -89.046875 C 83.070312 -91.210938 83.722656 -93.734375 84.296875 -96.609375 C 84.867188 -99.492188 84.757812 -101.976562 83.96875 -104.0625 C 83.175781 -106.15625 81.050781 -107.203125 77.59375 -107.203125 C 73.988281 -107.203125 70.132812 -105.582031 66.03125 -102.34375 C 61.925781 -99.101562 57.710938 -94.457031 53.390625 -88.40625 C 49.066406 -82.351562 44.8125 -75.070312 40.625 -66.5625 C 36.445312 -58.0625 32.445312 -48.585938 28.625 -38.140625 C 24.8125 -27.703125 21.25 -16.429688 17.9375 -4.328125 Z M 22.90625 -31.984375 "/></g></g></g></g></g><g transform="matrix(1, 0, 0, 1, 706, 712)"><g clip-path="url(#4f68611e93)"><g fill="#d4c1a0" fill-opacity="1"><g transform="translate(0.448117, 235.243271)"><g><path d="M 9.078125 -153.03125 C 12.097656 -152.882812 16.054688 -152.738281 20.953125 -152.59375 C 25.859375 -152.445312 30.691406 -152.375 35.453125 -152.375 C 42.222656 -152.375 48.703125 -152.445312 54.890625 -152.59375 C 61.085938 -152.738281 65.484375 -152.8125 68.078125 -152.8125 C 83.210938 -152.8125 94.597656 -149.640625 102.234375 -143.296875 C 109.867188 -136.960938 113.6875 -128.820312 113.6875 -118.875 C 113.6875 -113.832031 112.640625 -108.894531 110.546875 -104.0625 C 108.460938 -99.238281 105.003906 -94.84375 100.171875 -90.875 C 95.347656 -86.914062 88.90625 -83.710938 80.84375 -81.265625 L 80.84375 -80.84375 C 92.21875 -79.394531 101.109375 -76.6875 107.515625 -72.71875 C 113.929688 -68.757812 118.4375 -64.113281 121.03125 -58.78125 C 123.625 -53.457031 124.921875 -47.84375 124.921875 -41.9375 C 124.921875 -33.71875 122.867188 -26.472656 118.765625 -20.203125 C 114.660156 -13.941406 108.71875 -9.007812 100.9375 -5.40625 C 93.15625 -1.800781 83.863281 0 73.0625 0 C 69.882812 0 65.125 -0.101562 58.78125 -0.3125 C 52.445312 -0.53125 44.8125 -0.640625 35.875 -0.640625 C 30.832031 -0.640625 25.859375 -0.601562 20.953125 -0.53125 C 16.054688 -0.46875 12.097656 -0.289062 9.078125 0 L 9.078125 -4.328125 C 13.972656 -4.609375 17.679688 -5.179688 20.203125 -6.046875 C 22.722656 -6.910156 24.414062 -8.640625 25.28125 -11.234375 C 26.144531 -13.828125 26.578125 -17.71875 26.578125 -22.90625 L 26.578125 -130.109375 C 26.578125 -135.441406 26.144531 -139.367188 25.28125 -141.890625 C 24.414062 -144.410156 22.722656 -146.140625 20.203125 -147.078125 C 17.679688 -148.015625 13.972656 -148.554688 9.078125 -148.703125 Z M 62.6875 -148.703125 C 56.050781 -148.703125 51.722656 -147.476562 49.703125 -145.03125 C 47.691406 -142.582031 46.6875 -137.609375 46.6875 -130.109375 L 46.6875 -22.90625 C 46.6875 -17.863281 47.117188 -14.046875 47.984375 -11.453125 C 48.847656 -8.859375 50.429688 -7.128906 52.734375 -6.265625 C 55.046875 -5.398438 58.429688 -4.96875 62.890625 -4.96875 C 77.015625 -4.96875 87.28125 -8.242188 93.6875 -14.796875 C 100.101562 -21.359375 103.3125 -30.691406 103.3125 -42.796875 C 103.3125 -53.890625 100.320312 -62.460938 94.34375 -68.515625 C 88.363281 -74.566406 78.53125 -77.59375 64.84375 -77.59375 L 42.578125 -77.59375 C 42.578125 -77.59375 42.578125 -78.203125 42.578125 -79.421875 C 42.578125 -80.648438 42.578125 -81.265625 42.578125 -81.265625 L 61.171875 -81.265625 C 69.671875 -81.265625 76.222656 -82.882812 80.828125 -86.125 C 85.441406 -89.375 88.613281 -93.695312 90.34375 -99.09375 C 92.070312 -104.5 92.9375 -110.300781 92.9375 -116.5 C 92.9375 -127.164062 90.59375 -135.195312 85.90625 -140.59375 C 81.226562 -146 73.488281 -148.703125 62.6875 -148.703125 Z M 62.6875 -148.703125 "/></g></g></g><g fill="#d4c1a0" fill-opacity="1"><g transform="translate(135.091123, 235.243271)"><g><path d="M 30.90625 -165.34375 C 34.65625 -165.34375 37.898438 -163.972656 40.640625 -161.234375 C 43.378906 -158.503906 44.75 -155.265625 44.75 -151.515625 C 44.75 -147.765625 43.378906 -144.519531 40.640625 -141.78125 C 37.898438 -139.050781 34.65625 -137.6875 30.90625 -137.6875 C 27.164062 -137.6875 23.925781 -139.050781 21.1875 -141.78125 C 18.445312 -144.519531 17.078125 -147.765625 17.078125 -151.515625 C 17.078125 -155.265625 18.445312 -158.503906 21.1875 -161.234375 C 23.925781 -163.972656 27.164062 -165.34375 30.90625 -165.34375 Z M 42.140625 -113.6875 L 42.140625 -20.09375 C 42.140625 -14.039062 43.398438 -9.929688 45.921875 -7.765625 C 48.453125 -5.609375 52.671875 -4.53125 58.578125 -4.53125 L 58.578125 0 C 56.128906 -0.144531 52.414062 -0.320312 47.4375 -0.53125 C 42.46875 -0.75 37.460938 -0.859375 32.421875 -0.859375 C 27.523438 -0.859375 22.550781 -0.75 17.5 -0.53125 C 12.457031 -0.320312 8.710938 -0.144531 6.265625 0 L 6.265625 -4.53125 C 12.171875 -4.53125 16.382812 -5.609375 18.90625 -7.765625 C 21.425781 -9.929688 22.6875 -14.039062 22.6875 -20.09375 L 22.6875 -87.75 C 22.6875 -94.238281 21.535156 -99.03125 19.234375 -102.125 C 16.929688 -105.21875 12.609375 -106.765625 6.265625 -106.765625 L 6.265625 -111.3125 C 10.878906 -110.875 15.347656 -110.65625 19.671875 -110.65625 C 23.847656 -110.65625 27.84375 -110.90625 31.65625 -111.40625 C 35.476562 -111.914062 38.972656 -112.675781 42.140625 -113.6875 Z M 42.140625 -113.6875 "/></g></g></g><g fill="#d4c1a0" fill-opacity="1"><g transform="translate(198.414407, 235.243271)"><g><path d="M -5.625 40.640625 L -5.625 37.390625 C 3.3125 36.960938 10.015625 33.109375 14.484375 25.828125 C 18.953125 18.546875 21.1875 8.566406 21.1875 -4.109375 L 21.1875 -87.75 C 21.1875 -94.238281 20.03125 -99.03125 17.71875 -102.125 C 15.414062 -105.21875 11.09375 -106.765625 4.75 -106.765625 L 4.75 -111.3125 C 9.363281 -110.875 13.832031 -110.65625 18.15625 -110.65625 C 22.332031 -110.65625 26.328125 -110.90625 30.140625 -111.40625 C 33.960938 -111.914062 37.460938 -112.675781 40.640625 -113.6875 L 40.640625 -24.859375 C 40.640625 -17.648438 40.132812 -10.800781 39.125 -4.3125 C 38.113281 2.164062 36.453125 8.066406 34.140625 13.390625 C 31.835938 18.722656 28.816406 23.410156 25.078125 27.453125 C 21.472656 31.335938 17.039062 34.503906 11.78125 36.953125 C 6.519531 39.410156 0.71875 40.640625 -5.625 40.640625 Z M 28.953125 -165.34375 C 32.703125 -165.34375 35.945312 -163.972656 38.6875 -161.234375 C 41.425781 -158.503906 42.796875 -155.265625 42.796875 -151.515625 C 42.796875 -147.765625 41.425781 -144.519531 38.6875 -141.78125 C 35.945312 -139.050781 32.703125 -137.6875 28.953125 -137.6875 C 25.210938 -137.6875 21.972656 -139.050781 19.234375 -141.78125 C 16.492188 -144.519531 15.125 -147.765625 15.125 -151.515625 C 15.125 -155.265625 16.492188 -158.503906 19.234375 -161.234375 C 21.972656 -163.972656 25.210938 -165.34375 28.953125 -165.34375 Z M 28.953125 -165.34375 "/></g></g></g><g fill="#d4c1a0" fill-opacity="1"><g transform="translate(256.118562, 235.243271)"><g><path d="M 36.953125 1.515625 C 31.046875 1.515625 25.929688 0.398438 21.609375 -1.828125 C 17.285156 -4.066406 14.003906 -7.203125 11.765625 -11.234375 C 9.535156 -15.273438 8.421875 -19.957031 8.421875 -25.28125 C 8.421875 -31.625 9.898438 -36.8125 12.859375 -40.84375 C 15.816406 -44.882812 19.597656 -48.128906 24.203125 -50.578125 C 28.816406 -53.023438 33.679688 -55.078125 38.796875 -56.734375 C 43.910156 -58.390625 48.769531 -59.972656 53.375 -61.484375 C 57.988281 -63.003906 61.773438 -64.769531 64.734375 -66.78125 C 67.691406 -68.800781 69.171875 -71.46875 69.171875 -74.78125 L 69.171875 -88.1875 C 69.171875 -94.238281 68.269531 -98.847656 66.46875 -102.015625 C 64.664062 -105.179688 62.25 -107.304688 59.21875 -108.390625 C 56.195312 -109.472656 52.8125 -110.015625 49.0625 -110.015625 C 45.457031 -110.015625 41.601562 -109.507812 37.5 -108.5 C 33.394531 -107.488281 30.117188 -105.398438 27.671875 -102.234375 C 30.398438 -101.660156 32.773438 -100.21875 34.796875 -97.90625 C 36.816406 -95.601562 37.828125 -92.648438 37.828125 -89.046875 C 37.828125 -85.441406 36.671875 -82.59375 34.359375 -80.5 C 32.054688 -78.414062 29.101562 -77.375 25.5 -77.375 C 21.320312 -77.375 18.257812 -78.707031 16.3125 -81.375 C 14.375 -84.039062 13.40625 -87.03125 13.40625 -90.34375 C 13.40625 -94.09375 14.335938 -97.117188 16.203125 -99.421875 C 18.078125 -101.734375 20.457031 -103.894531 23.34375 -105.90625 C 26.65625 -108.207031 30.941406 -110.1875 36.203125 -111.84375 C 41.460938 -113.507812 47.40625 -114.34375 54.03125 -114.34375 C 59.9375 -114.34375 64.976562 -113.65625 69.15625 -112.28125 C 73.34375 -110.914062 76.804688 -108.9375 79.546875 -106.34375 C 83.285156 -102.882812 85.734375 -98.664062 86.890625 -93.6875 C 88.046875 -88.71875 88.625 -82.773438 88.625 -75.859375 L 88.625 -15.78125 C 88.625 -12.175781 89.160156 -9.582031 90.234375 -8 C 91.316406 -6.414062 93.007812 -5.625 95.3125 -5.625 C 96.90625 -5.625 98.421875 -5.984375 99.859375 -6.703125 C 101.296875 -7.421875 103.023438 -8.570312 105.046875 -10.15625 L 107.421875 -6.484375 C 104.398438 -4.179688 101.519531 -2.269531 98.78125 -0.75 C 96.039062 0.757812 92.363281 1.515625 87.75 1.515625 C 83.570312 1.515625 80.113281 0.796875 77.375 -0.640625 C 74.632812 -2.085938 72.582031 -4.210938 71.21875 -7.015625 C 69.851562 -9.828125 69.171875 -13.394531 69.171875 -17.71875 C 65.273438 -11.238281 60.625 -6.410156 55.21875 -3.234375 C 49.820312 -0.0664062 43.734375 1.515625 36.953125 1.515625 Z M 44.734375 -7.125 C 49.492188 -7.125 53.925781 -8.492188 58.03125 -11.234375 C 62.132812 -13.972656 65.847656 -18.082031 69.171875 -23.5625 L 69.171875 -65.921875 C 67.441406 -63.472656 64.914062 -61.421875 61.59375 -59.765625 C 58.28125 -58.109375 54.675781 -56.453125 50.78125 -54.796875 C 46.894531 -53.140625 43.1875 -51.191406 39.65625 -48.953125 C 36.125 -46.722656 33.207031 -43.804688 30.90625 -40.203125 C 28.601562 -36.597656 27.453125 -31.914062 27.453125 -26.15625 C 27.453125 -20.382812 29 -15.769531 32.09375 -12.3125 C 35.195312 -8.851562 39.410156 -7.125 44.734375 -7.125 Z M 44.734375 -7.125 "/></g></g></g><g fill="#d4c1a0" fill-opacity="1"><g transform="translate(363.746526, 235.243271)"><g><path d="M 78.890625 -114.34375 C 84.367188 -114.34375 88.941406 -113.617188 92.609375 -112.171875 C 96.285156 -110.734375 99.347656 -108.71875 101.796875 -106.125 C 104.535156 -103.238281 106.476562 -99.632812 107.625 -95.3125 C 108.78125 -90.988281 109.359375 -85.15625 109.359375 -77.8125 L 109.359375 -20.09375 C 109.359375 -14.039062 110.617188 -9.929688 113.140625 -7.765625 C 115.671875 -5.609375 119.890625 -4.53125 125.796875 -4.53125 L 125.796875 0 C 123.347656 -0.144531 119.597656 -0.320312 114.546875 -0.53125 C 109.503906 -0.75 104.609375 -0.859375 99.859375 -0.859375 C 95.097656 -0.859375 90.445312 -0.75 85.90625 -0.53125 C 81.375 -0.320312 77.957031 -0.144531 75.65625 0 L 75.65625 -4.53125 C 80.84375 -4.53125 84.515625 -5.609375 86.671875 -7.765625 C 88.835938 -9.929688 89.921875 -14.039062 89.921875 -20.09375 L 89.921875 -82.5625 C 89.921875 -87.03125 89.554688 -91.132812 88.828125 -94.875 C 88.109375 -98.625 86.488281 -101.648438 83.96875 -103.953125 C 81.445312 -106.265625 77.59375 -107.421875 72.40625 -107.421875 C 66.351562 -107.421875 61.054688 -105.691406 56.515625 -102.234375 C 51.984375 -98.773438 48.453125 -94.054688 45.921875 -88.078125 C 43.398438 -82.097656 42.140625 -75.429688 42.140625 -68.078125 L 42.140625 -20.09375 C 42.140625 -14.039062 43.21875 -9.929688 45.375 -7.765625 C 47.539062 -5.609375 51.21875 -4.53125 56.40625 -4.53125 L 56.40625 0 C 54.101562 -0.144531 50.679688 -0.320312 46.140625 -0.53125 C 41.609375 -0.75 36.960938 -0.859375 32.203125 -0.859375 C 27.453125 -0.859375 22.550781 -0.75 17.5 -0.53125 C 12.457031 -0.320312 8.710938 -0.144531 6.265625 0 L 6.265625 -4.53125 C 12.171875 -4.53125 16.382812 -5.609375 18.90625 -7.765625 C 21.425781 -9.929688 22.6875 -14.039062 22.6875 -20.09375 L 22.6875 -87.75 C 22.6875 -94.238281 21.535156 -99.03125 19.234375 -102.125 C 16.929688 -105.21875 12.609375 -106.765625 6.265625 -106.765625 L 6.265625 -111.3125 C 10.878906 -110.875 15.347656 -110.65625 19.671875 -110.65625 C 23.847656 -110.65625 27.84375 -110.90625 31.65625 -111.40625 C 35.476562 -111.914062 38.972656 -112.675781 42.140625 -113.6875 L 42.140625 -88.1875 C 45.890625 -97.988281 51.113281 -104.796875 57.8125 -108.609375 C 64.519531 -112.429688 71.546875 -114.34375 78.890625 -114.34375 Z M 78.890625 -114.34375 "/></g></g></g></g></g><g fill="#d4c1a0" fill-opacity="1"><g transform="translate(440.631969, 1063.308056)"><g><path d="M 3.859375 0 L 3.859375 -29.28125 L 7.1875 -29.28125 L 7.1875 0 Z M 5.1875 0 L 5.1875 -2.921875 L 23.734375 -2.921875 L 23.734375 0 Z M 5.1875 -13.578125 L 5.1875 -16.421875 L 21.65625 -16.421875 L 21.65625 -13.578125 Z M 5.1875 -26.359375 L 5.1875 -29.28125 L 23.703125 -29.28125 L 23.703125 -26.359375 Z M 5.1875 -26.359375 "/></g></g></g><g fill="#d4c1a0" fill-opacity="1"><g transform="translate(465.788117, 1063.308056)"><g><path d="M 13.796875 0.53125 C 11.878906 0.53125 10.1875 0.328125 8.71875 -0.078125 C 7.25 -0.492188 6.039062 -1.113281 5.09375 -1.9375 C 4.15625 -2.769531 3.460938 -3.789062 3.015625 -5 C 2.578125 -6.21875 2.414062 -7.628906 2.53125 -9.234375 L 5.546875 -9.71875 C 5.398438 -8.0625 5.644531 -6.6875 6.28125 -5.59375 C 6.914062 -4.5 7.890625 -3.691406 9.203125 -3.171875 C 10.523438 -2.648438 12.085938 -2.390625 13.890625 -2.390625 C 15.628906 -2.390625 17.101562 -2.601562 18.3125 -3.03125 C 19.53125 -3.46875 20.457031 -4.082031 21.09375 -4.875 C 21.726562 -5.675781 22.046875 -6.59375 22.046875 -7.625 C 22.046875 -8.8125 21.675781 -9.738281 20.9375 -10.40625 C 20.195312 -11.070312 19.242188 -11.585938 18.078125 -11.953125 C 16.910156 -12.328125 15.617188 -12.660156 14.203125 -12.953125 C 12.867188 -13.222656 11.535156 -13.539062 10.203125 -13.90625 C 8.867188 -14.28125 7.671875 -14.769531 6.609375 -15.375 C 5.546875 -15.976562 4.6875 -16.769531 4.03125 -17.75 C 3.382812 -18.726562 3.0625 -19.972656 3.0625 -21.484375 C 3.0625 -23.191406 3.488281 -24.664062 4.34375 -25.90625 C 5.207031 -27.15625 6.40625 -28.117188 7.9375 -28.796875 C 9.476562 -29.472656 11.285156 -29.8125 13.359375 -29.8125 C 15.398438 -29.8125 17.222656 -29.488281 18.828125 -28.84375 C 20.441406 -28.195312 21.738281 -27.210938 22.71875 -25.890625 C 23.695312 -24.578125 24.203125 -22.925781 24.234375 -20.9375 L 21.078125 -20.234375 C 21.078125 -21.359375 20.890625 -22.34375 20.515625 -23.1875 C 20.148438 -24.03125 19.617188 -24.734375 18.921875 -25.296875 C 18.234375 -25.859375 17.414062 -26.28125 16.46875 -26.5625 C 15.519531 -26.84375 14.453125 -26.984375 13.265625 -26.984375 C 11.910156 -26.984375 10.707031 -26.757812 9.65625 -26.3125 C 8.601562 -25.875 7.769531 -25.257812 7.15625 -24.46875 C 6.550781 -23.6875 6.25 -22.765625 6.25 -21.703125 C 6.25 -20.429688 6.671875 -19.429688 7.515625 -18.703125 C 8.359375 -17.972656 9.460938 -17.414062 10.828125 -17.03125 C 12.191406 -16.65625 13.625 -16.289062 15.125 -15.9375 C 16.425781 -15.664062 17.671875 -15.351562 18.859375 -15 C 20.046875 -14.644531 21.125 -14.171875 22.09375 -13.578125 C 23.070312 -12.984375 23.84375 -12.207031 24.40625 -11.25 C 24.96875 -10.289062 25.25 -9.082031 25.25 -7.625 C 25.25 -5.96875 24.816406 -4.523438 23.953125 -3.296875 C 23.097656 -2.078125 21.828125 -1.132812 20.140625 -0.46875 C 18.453125 0.195312 16.335938 0.53125 13.796875 0.53125 Z M 13.796875 0.53125 "/></g></g></g><g fill="#d4c1a0" fill-opacity="1"><g transform="translate(492.718912, 1063.308056)"><g><path d="M 10.15625 0 L 10.15625 -29.28125 L 13.453125 -29.28125 L 13.453125 0 Z M 1.15625 -26.3125 L 1.15625 -29.28125 L 22.40625 -29.28125 L 22.40625 -26.3125 Z M 1.15625 -26.3125 "/></g></g></g><g fill="#d4c1a0" fill-opacity="1"><g transform="translate(513.171951, 1063.308056)"><g><path d="M 1.421875 0 L 11.796875 -29.28125 L 16.59375 -29.28125 L 26.984375 0 L 23.46875 0 L 14.421875 -26.40625 L 13.984375 -26.40625 L 4.96875 0 Z M 6.03125 -6.828125 L 6.03125 -9.546875 L 22.71875 -9.546875 L 22.71875 -6.828125 Z M 6.03125 -6.828125 "/></g></g></g><g fill="#d4c1a0" fill-opacity="1"><g transform="translate(538.416643, 1063.308056)"><g><path d="M 10.15625 0 L 10.15625 -29.28125 L 13.453125 -29.28125 L 13.453125 0 Z M 1.15625 -26.3125 L 1.15625 -29.28125 L 22.40625 -29.28125 L 22.40625 -26.3125 Z M 1.15625 -26.3125 "/></g></g></g><g fill="#d4c1a0" fill-opacity="1"><g transform="translate(562.019955, 1063.308056)"><g><path d="M 3.859375 0 L 3.859375 -29.28125 L 7.1875 -29.28125 L 7.1875 0 Z M 5.1875 0 L 5.1875 -2.921875 L 23.734375 -2.921875 L 23.734375 0 Z M 5.1875 -13.578125 L 5.1875 -16.421875 L 21.65625 -16.421875 L 21.65625 -13.578125 Z M 5.1875 -26.359375 L 5.1875 -29.28125 L 23.703125 -29.28125 L 23.703125 -26.359375 Z M 5.1875 -26.359375 "/></g></g></g><g fill="#d4c1a0" fill-opacity="1"><g transform="translate(587.397958, 1063.308056)"><g/></g></g><g fill="#d4c1a0" fill-opacity="1"><g transform="translate(598.800312, 1063.308056)"><g><path d="M 5.234375 -9.28125 L 5.234375 -12.203125 L 12.296875 -12.203125 C 12.910156 -12.203125 13.625 -12.222656 14.4375 -12.265625 C 15.257812 -12.316406 16.097656 -12.453125 16.953125 -12.671875 C 17.804688 -12.890625 18.59375 -13.257812 19.3125 -13.78125 C 20.039062 -14.300781 20.628906 -15.007812 21.078125 -15.90625 C 21.523438 -16.8125 21.75 -17.988281 21.75 -19.4375 C 21.75 -20.820312 21.523438 -21.953125 21.078125 -22.828125 C 20.628906 -23.703125 20.050781 -24.382812 19.34375 -24.875 C 18.632812 -25.363281 17.878906 -25.71875 17.078125 -25.9375 C 16.285156 -26.15625 15.539062 -26.285156 14.84375 -26.328125 C 14.144531 -26.378906 13.578125 -26.40625 13.140625 -26.40625 L 5.234375 -26.40625 L 5.234375 -29.28125 L 13.484375 -29.28125 C 15.171875 -29.28125 16.722656 -29.082031 18.140625 -28.6875 C 19.566406 -28.289062 20.804688 -27.6875 21.859375 -26.875 C 22.910156 -26.0625 23.722656 -25.023438 24.296875 -23.765625 C 24.867188 -22.503906 25.15625 -21.015625 25.15625 -19.296875 C 25.15625 -17.171875 24.675781 -15.359375 23.71875 -13.859375 C 22.757812 -12.367188 21.296875 -11.234375 19.328125 -10.453125 C 17.359375 -9.671875 14.910156 -9.28125 11.984375 -9.28125 Z M 3.859375 0 L 3.859375 -29.28125 L 7.140625 -29.28125 L 7.140625 0 Z M 3.859375 0 "/></g></g></g><g fill="#d4c1a0" fill-opacity="1"><g transform="translate(625.775534, 1063.308056)"><g><path d="M 3.859375 0 L 3.859375 -29.28125 L 7.140625 -29.28125 L 7.140625 0 Z M 5.1875 0 L 5.1875 -2.96875 L 21.25 -2.96875 L 21.25 0 Z M 5.1875 0 "/></g></g></g><g fill="#d4c1a0" fill-opacity="1"><g transform="translate(649.290199, 1063.308056)"><g><path d="M 1.421875 0 L 11.796875 -29.28125 L 16.59375 -29.28125 L 26.984375 0 L 23.46875 0 L 14.421875 -26.40625 L 13.984375 -26.40625 L 4.96875 0 Z M 6.03125 -6.828125 L 6.03125 -9.546875 L 22.71875 -9.546875 L 22.71875 -6.828125 Z M 6.03125 -6.828125 "/></g></g></g><g fill="#d4c1a0" fill-opacity="1"><g transform="translate(677.685163, 1063.308056)"><g><path d="M 3.859375 0 L 3.859375 -29.28125 L 8.34375 -29.28125 L 24.453125 -4.265625 L 24.71875 -4.265625 L 24.5 -29.28125 L 27.6875 -29.28125 L 27.6875 0 L 23.5625 0 L 7.1875 -25.421875 L 6.875 -25.421875 L 7.09375 0 Z M 3.859375 0 "/></g></g></g><g fill="#d4c1a0" fill-opacity="1"><g transform="translate(709.274562, 1063.308056)"><g><path d="M 3.859375 0 L 3.859375 -29.28125 L 8.34375 -29.28125 L 24.453125 -4.265625 L 24.71875 -4.265625 L 24.5 -29.28125 L 27.6875 -29.28125 L 27.6875 0 L 23.5625 0 L 7.1875 -25.421875 L 6.875 -25.421875 L 7.09375 0 Z M 3.859375 0 "/></g></g></g><g fill="#d4c1a0" fill-opacity="1"><g transform="translate(740.863961, 1063.308056)"><g><path d="M 3.859375 0 L 3.859375 -29.28125 L 7.234375 -29.28125 L 7.234375 0 Z M 3.859375 0 "/></g></g></g><g fill="#d4c1a0" fill-opacity="1"><g transform="translate(751.955734, 1063.308056)"><g><path d="M 3.859375 0 L 3.859375 -29.28125 L 8.34375 -29.28125 L 24.453125 -4.265625 L 24.71875 -4.265625 L 24.5 -29.28125 L 27.6875 -29.28125 L 27.6875 0 L 23.5625 0 L 7.1875 -25.421875 L 6.875 -25.421875 L 7.09375 0 Z M 3.859375 0 "/></g></g></g><g fill="#d4c1a0" fill-opacity="1"><g transform="translate(783.545133, 1063.308056)"><g><path d="M 15.171875 0.53125 C 12.804688 0.53125 10.691406 -0.0195312 8.828125 -1.125 C 6.960938 -2.238281 5.503906 -3.90625 4.453125 -6.125 C 3.410156 -8.34375 2.890625 -11.15625 2.890625 -14.5625 C 2.890625 -16.925781 3.171875 -19.046875 3.734375 -20.921875 C 4.296875 -22.796875 5.128906 -24.398438 6.234375 -25.734375 C 7.347656 -27.066406 8.707031 -28.078125 10.3125 -28.765625 C 11.925781 -29.460938 13.800781 -29.8125 15.9375 -29.8125 C 17.46875 -29.8125 18.867188 -29.613281 20.140625 -29.21875 C 21.410156 -28.820312 22.523438 -28.238281 23.484375 -27.46875 C 24.453125 -26.695312 25.234375 -25.738281 25.828125 -24.59375 C 26.421875 -23.457031 26.804688 -22.148438 26.984375 -20.671875 L 23.78125 -19.828125 C 23.664062 -21.128906 23.363281 -22.234375 22.875 -23.140625 C 22.382812 -24.046875 21.769531 -24.769531 21.03125 -25.3125 C 20.289062 -25.863281 19.476562 -26.253906 18.59375 -26.484375 C 17.707031 -26.722656 16.804688 -26.84375 15.890625 -26.84375 C 14.523438 -26.84375 13.257812 -26.613281 12.09375 -26.15625 C 10.925781 -25.695312 9.910156 -24.988281 9.046875 -24.03125 C 8.191406 -23.070312 7.519531 -21.8125 7.03125 -20.25 C 6.539062 -18.695312 6.296875 -16.8125 6.296875 -14.59375 C 6.296875 -12.257812 6.554688 -10.316406 7.078125 -8.765625 C 7.597656 -7.210938 8.289062 -5.976562 9.15625 -5.0625 C 10.03125 -4.144531 11.03125 -3.492188 12.15625 -3.109375 C 13.28125 -2.722656 14.421875 -2.53125 15.578125 -2.53125 C 17.234375 -2.53125 18.648438 -2.847656 19.828125 -3.484375 C 21.015625 -4.117188 21.96875 -5.085938 22.6875 -6.390625 C 23.414062 -7.691406 23.882812 -9.332031 24.09375 -11.3125 L 17.125 -11.3125 L 17.125 -14.15625 L 27.375 -14.15625 L 27.375 0 L 24.40625 0 L 25.46875 -8.171875 L 24.890625 -8.171875 C 24.503906 -6.210938 23.90625 -4.585938 23.09375 -3.296875 C 22.28125 -2.015625 21.222656 -1.054688 19.921875 -0.421875 C 18.617188 0.210938 17.035156 0.53125 15.171875 0.53125 Z M 15.171875 0.53125 "/></g></g></g><g fill="#d4c1a0" fill-opacity="1"><g transform="translate(813.981013, 1063.308056)"><g/></g></g><g fill="#d4c1a0" fill-opacity="1"><g transform="translate(825.383355, 1063.308056)"><g><path d="M 1.421875 0 L 11.796875 -29.28125 L 16.59375 -29.28125 L 26.984375 0 L 23.46875 0 L 14.421875 -26.40625 L 13.984375 -26.40625 L 4.96875 0 Z M 6.03125 -6.828125 L 6.03125 -9.546875 L 22.71875 -9.546875 L 22.71875 -6.828125 Z M 6.03125 -6.828125 "/></g></g></g><g fill="#d4c1a0" fill-opacity="1"><g transform="translate(850.628059, 1063.308056)"><g><path d="M 10.15625 0 L 10.15625 -29.28125 L 13.453125 -29.28125 L 13.453125 0 Z M 1.15625 -26.3125 L 1.15625 -29.28125 L 22.40625 -29.28125 L 22.40625 -26.3125 Z M 1.15625 -26.3125 "/></g></g></g><g fill="#d4c1a0" fill-opacity="1"><g transform="translate(875.961796, 1063.308056)"><g><path d="M 10.15625 0 L 10.15625 -29.28125 L 13.453125 -29.28125 L 13.453125 0 Z M 1.15625 -26.3125 L 1.15625 -29.28125 L 22.40625 -29.28125 L 22.40625 -26.3125 Z M 1.15625 -26.3125 "/></g></g></g><g fill="#d4c1a0" fill-opacity="1"><g transform="translate(898.278368, 1063.308056)"><g><path d="M 15.703125 0.578125 C 13.578125 0.578125 11.707031 0.21875 10.09375 -0.5 C 8.476562 -1.226562 7.140625 -2.265625 6.078125 -3.609375 C 5.015625 -4.960938 4.21875 -6.554688 3.6875 -8.390625 C 3.15625 -10.222656 2.890625 -12.265625 2.890625 -14.515625 C 2.890625 -17.878906 3.4375 -20.703125 4.53125 -22.984375 C 5.625 -25.265625 7.128906 -26.972656 9.046875 -28.109375 C 10.972656 -29.242188 13.179688 -29.8125 15.671875 -29.8125 C 17.617188 -29.8125 19.367188 -29.472656 20.921875 -28.796875 C 22.472656 -28.117188 23.8125 -27.113281 24.9375 -25.78125 C 26.0625 -24.445312 26.925781 -22.832031 27.53125 -20.9375 C 28.132812 -19.050781 28.4375 -16.894531 28.4375 -14.46875 C 28.4375 -12.25 28.160156 -10.210938 27.609375 -8.359375 C 27.066406 -6.515625 26.269531 -4.925781 25.21875 -3.59375 C 24.175781 -2.257812 22.851562 -1.226562 21.25 -0.5 C 19.65625 0.21875 17.804688 0.578125 15.703125 0.578125 Z M 15.578125 -2.390625 C 16.554688 -2.390625 17.59375 -2.5625 18.6875 -2.90625 C 19.78125 -3.25 20.8125 -3.84375 21.78125 -4.6875 C 22.757812 -5.53125 23.550781 -6.738281 24.15625 -8.3125 C 24.769531 -9.894531 25.078125 -11.929688 25.078125 -14.421875 C 25.078125 -17.410156 24.628906 -19.804688 23.734375 -21.609375 C 22.847656 -23.410156 21.703125 -24.734375 20.296875 -25.578125 C 18.890625 -26.421875 17.375 -26.84375 15.75 -26.84375 C 14.832031 -26.84375 13.828125 -26.679688 12.734375 -26.359375 C 11.640625 -26.035156 10.597656 -25.441406 9.609375 -24.578125 C 8.617188 -23.722656 7.804688 -22.484375 7.171875 -20.859375 C 6.535156 -19.234375 6.21875 -17.117188 6.21875 -14.515625 C 6.21875 -12.117188 6.5 -10.132812 7.0625 -8.5625 C 7.625 -7 8.363281 -5.765625 9.28125 -4.859375 C 10.195312 -3.953125 11.207031 -3.3125 12.3125 -2.9375 C 13.425781 -2.570312 14.515625 -2.390625 15.578125 -2.390625 Z M 15.578125 -2.390625 "/></g></g></g><g fill="#d4c1a0" fill-opacity="1"><g transform="translate(929.55722, 1063.308056)"><g><path d="M 3.859375 0 L 3.859375 -29.28125 L 13.484375 -29.28125 C 14.910156 -29.28125 16.222656 -29.160156 17.421875 -28.921875 C 18.617188 -28.691406 19.6875 -28.347656 20.625 -27.890625 C 21.570312 -27.429688 22.367188 -26.859375 23.015625 -26.171875 C 23.671875 -25.492188 24.175781 -24.695312 24.53125 -23.78125 C 24.894531 -22.863281 25.078125 -21.859375 25.078125 -20.765625 C 25.078125 -19.734375 24.921875 -18.785156 24.609375 -17.921875 C 24.296875 -17.066406 23.84375 -16.3125 23.25 -15.65625 C 22.65625 -15.007812 21.898438 -14.476562 20.984375 -14.0625 C 20.066406 -13.65625 19.003906 -13.375 17.796875 -13.21875 L 17.796875 -12.6875 C 18.679688 -12.539062 19.507812 -12.289062 20.28125 -11.9375 C 21.050781 -11.582031 21.742188 -11 22.359375 -10.1875 C 22.984375 -9.375 23.503906 -8.242188 23.921875 -6.796875 L 25.828125 0 L 22.328125 0 L 20.765625 -6.03125 C 20.472656 -7.332031 19.960938 -8.375 19.234375 -9.15625 C 18.515625 -9.945312 17.679688 -10.519531 16.734375 -10.875 C 15.785156 -11.226562 14.765625 -11.40625 13.671875 -11.40625 L 7.140625 -11.40625 L 7.140625 0 Z M 7.140625 -14.25 L 12.296875 -14.25 C 12.910156 -14.25 13.625 -14.269531 14.4375 -14.3125 C 15.257812 -14.351562 16.097656 -14.460938 16.953125 -14.640625 C 17.804688 -14.816406 18.585938 -15.117188 19.296875 -15.546875 C 20.015625 -15.984375 20.59375 -16.582031 21.03125 -17.34375 C 21.476562 -18.113281 21.703125 -19.109375 21.703125 -20.328125 C 21.703125 -21.535156 21.476562 -22.523438 21.03125 -23.296875 C 20.59375 -24.066406 20.03125 -24.664062 19.34375 -25.09375 C 18.664062 -25.519531 17.921875 -25.828125 17.109375 -26.015625 C 16.296875 -26.210938 15.523438 -26.328125 14.796875 -26.359375 C 14.078125 -26.390625 13.445312 -26.40625 12.90625 -26.40625 L 7.140625 -26.40625 Z M 7.140625 -14.25 "/></g></g></g><g fill="#d4c1a0" fill-opacity="1"><g transform="translate(957.730329, 1063.308056)"><g><path d="M 3.859375 0 L 3.859375 -29.28125 L 8.34375 -29.28125 L 24.453125 -4.265625 L 24.71875 -4.265625 L 24.5 -29.28125 L 27.6875 -29.28125 L 27.6875 0 L 23.5625 0 L 7.1875 -25.421875 L 6.875 -25.421875 L 7.09375 0 Z M 3.859375 0 "/></g></g></g><g fill="#d4c1a0" fill-opacity="1"><g transform="translate(989.319727, 1063.308056)"><g><path d="M 3.859375 0 L 3.859375 -29.28125 L 7.1875 -29.28125 L 7.1875 0 Z M 5.1875 0 L 5.1875 -2.921875 L 23.734375 -2.921875 L 23.734375 0 Z M 5.1875 -13.578125 L 5.1875 -16.421875 L 21.65625 -16.421875 L 21.65625 -13.578125 Z M 5.1875 -26.359375 L 5.1875 -29.28125 L 23.703125 -29.28125 L 23.703125 -26.359375 Z M 5.1875 -26.359375 "/></g></g></g><g fill="#d4c1a0" fill-opacity="1"><g transform="translate(1016.117577, 1063.308056)"><g><path d="M 10.6875 0 L 10.6875 -9.578125 L 0.671875 -29.28125 L 4.4375 -29.28125 L 12.296875 -12.953125 L 12.46875 -12.953125 L 20.234375 -29.28125 L 24.046875 -29.28125 L 14.015625 -9.578125 L 14.015625 0 Z M 10.6875 0 "/></g></g></g></svg>